<svg width="13" height="18" viewBox="0 0 13 18" fill="none" xmlns="http://www.w3.org/2000/svg">
<g clip-path="url(#clip0)">
<path d="M12.6 6.2976C12.6 2.82 9.77949 0 6.30124 0C2.81927 0 0 2.82 0 6.2976C0 7.7508 0.496716 9.0876 1.32664 10.1556H1.29444L6.66418 18L11.3006 10.1556H11.2721C12.0996 9.0876 12.6 7.7508 12.6 6.2976ZM6.30124 9.8976C4.30942 9.8976 2.69664 8.2836 2.69664 6.2976C2.69664 4.308 4.30942 2.6976 6.30124 2.6976C8.28687 2.6976 9.90212 4.308 9.90212 6.2976C9.90212 8.2836 8.28563 9.8976 6.30124 9.8976Z" fill="#1427A8"/>
</g>
<defs>
<clipPath id="clip0">
<rect width="12.6" height="18" fill="white"/>
</clipPath>
</defs>
</svg>
