<svg width="300" height="58" viewBox="0 0 300 58" fill="none" xmlns="http://www.w3.org/2000/svg">
<g clip-path="url(#clip0)">
<path d="M0 27.849L15.0495 35.7713L26.9685 29.497V14.2461L0 27.849Z" fill="#1427A8"/>
<path d="M59.7555 27.849L38.8935 17.3234V21.6317L32.79 18.5095V29.4971L44.7075 35.7714L59.7555 27.849Z" fill="#3CCFED"/>
<path d="M40.4686 14.6991L33.045 10.9021V3.48206L40.4686 7.27754V14.6991Z" fill="#3CCFED"/>
<path d="M48.8445 6.96114L44.238 4.60527V0L48.8445 2.35587V6.96114Z" fill="#3CCFED"/>
<path d="M52.02 20.5249L45.672 17.2768V10.929L52.02 14.1756V20.5249Z" fill="#3CCFED"/>
<path d="M0 27.8491L26.9685 42.0443V57.2997L0 43.6939V27.8491Z" fill="#3CCFED"/>
<path d="M59.7555 27.8491L32.79 42.0443V57.2997L59.7555 43.6939V27.8491Z" fill="#1427A8"/>
<path d="M99.8625 21.2644V27.0709H80.946V31.7616H96.1755V37.568H80.946V48.0652H75.1005V21.2644H99.8625Z" fill="#1427A8"/>
<path d="M130.245 24.6145C129.946 23.9442 129.551 23.3623 129.054 22.8645C128.556 22.3681 127.974 21.9767 127.304 21.6918C126.633 21.4084 125.913 21.2644 125.144 21.2644H109.394C108.623 21.2644 107.904 21.4084 107.234 21.6918C106.563 21.9767 105.98 22.3681 105.483 22.8645C104.987 23.3608 104.595 23.9442 104.31 24.6145C104.025 25.2848 103.883 26.0046 103.883 26.7739V48.0667H109.653V39.4305H124.845V48.0667H130.69V26.7739C130.692 26.0046 130.543 25.2848 130.245 24.6145ZM124.845 33.6226H109.655V27.0709H124.845V33.6226Z" fill="#1427A8"/>
<path d="M142.644 21.2644H136.836V48.0667H142.644V21.2644Z" fill="#1427A8"/>
<path d="M170.237 38.8157C170.906 38.5307 171.489 38.1333 171.986 37.625C172.481 37.1166 172.88 36.5273 173.178 35.857C173.475 35.1866 173.625 34.4803 173.625 33.735V26.8114C173.625 26.0661 173.475 25.3598 173.178 24.6894C172.88 24.0191 172.481 23.4298 171.986 22.9214C171.489 22.413 170.906 22.0157 170.237 21.7307C169.565 21.4458 168.845 21.3033 168.075 21.3033H146.816V48.0682H152.588V39.4695C152.588 39.495 152.613 39.507 152.663 39.507H152.699C152.699 39.357 152.663 39.2835 152.588 39.2835L160.257 39.246L167.666 48.0682H173.625V46.0962C172.68 44.979 171.713 43.8378 170.72 42.6711C169.725 41.5059 168.758 40.3633 167.814 39.246H168.074C168.845 39.2431 169.565 39.1006 170.237 38.8157ZM167.78 33.4366H152.588V27.0708H167.78V33.4366Z" fill="#1427A8"/>
<path d="M204.902 21.2644V27.0709H194.402V48.0652H188.594V27.0709H178.094V21.2644H204.902Z" fill="#1427A8"/>
<path d="M234.393 27.0709H215.475V31.7616H230.705V37.568H215.475V42.2588H234.393V48.0652H209.63V21.2644H234.393V27.0709Z" fill="#1427A8"/>
<path d="M245.711 27.0709V42.2588H266.675V48.0667H245.451C244.68 48.0667 243.962 47.9243 243.293 47.6393C242.622 47.3544 242.039 46.963 241.541 46.4667C241.046 45.9703 240.654 45.3869 240.369 44.7166C240.084 44.0463 239.942 43.3265 239.942 42.5572V26.7739C239.942 26.0046 240.084 25.2848 240.369 24.6145C240.654 23.9442 241.046 23.3623 241.541 22.8645C242.039 22.3681 242.622 21.9767 243.293 21.6918C243.962 21.4084 244.682 21.2644 245.451 21.2644H266.675V27.0709H245.711Z" fill="#1427A8"/>
<path d="M299.814 21.2644V48.0652H294.042V37.568H278.217V48.0652H272.445V21.2644H278.217V31.7616H294.042V21.2644H299.814Z" fill="#1427A8"/>
</g>
<defs>
<clipPath id="clip0">
<rect width="300" height="57.2997" fill="white"/>
</clipPath>
</defs>
</svg>
