<svg width="21" height="15" viewBox="0 0 21 15" fill="none" xmlns="http://www.w3.org/2000/svg">
<g clip-path="url(#clip0)">
<path d="M0 3.16089V13.3199L6.15773 8.23989L0 3.16089Z" fill="#1427A8"/>
<path d="M19.0801 0H1.63521C0.829707 0 0.157276 0.584 0.0231934 1.347L8.16394 8.061L9.51787 9.18C9.98061 9.561 10.7327 9.561 11.1954 9.18L12.6209 8.004L20.6911 1.347C20.557 0.584 19.8836 0 19.0801 0Z" fill="#1427A8"/>
<path d="M20.7142 13.3199V3.16089L14.5585 8.23989L20.7142 13.3199Z" fill="#1427A8"/>
<path d="M12.2963 10.104L11.1954 11.012C10.7327 11.395 9.98059 11.395 9.51786 11.012L8.09839 9.84201L7.26768 9.15601L0.615967 14.644C0.89623 14.865 1.2521 15 1.6352 15H19.0801C19.4642 15 19.818 14.865 20.0983 14.645L13.4466 9.15701L12.2963 10.104Z" fill="#1427A8"/>
</g>
<defs>
<clipPath id="clip0">
<rect width="20.7143" height="15" fill="white"/>
</clipPath>
</defs>
</svg>
