<svg width="18" height="18" viewBox="0 0 18 18" fill="none" xmlns="http://www.w3.org/2000/svg">
<g clip-path="url(#clip0)">
<path d="M6.74643 6.36486C6.92163 6.18726 7.17963 5.87886 7.31043 5.55486C7.76643 4.43526 7.56003 4.21686 7.56003 4.21686C7.26003 3.57126 6.61683 2.70726 5.76843 1.85766C4.92003 1.00686 4.05003 0.368456 3.40683 0.0648564C3.40683 0.0648564 2.35443 -0.257944 1.56723 0.534056C1.56483 0.532856 1.56723 0.534056 1.56003 0.542456C1.55643 0.544856 1.55643 0.544856 1.55643 0.544856C1.44843 0.655256 1.34883 0.764456 1.25403 0.873656L6.74643 6.36486Z" fill="#1427A8"/>
<path d="M17.934 14.5932C17.6364 13.9476 16.9956 13.0848 16.1484 12.234C15.2964 11.3844 14.43 10.7448 13.7796 10.4436C13.7796 10.4436 13.566 10.2348 12.4464 10.692C12.1248 10.8252 11.8164 11.0784 11.6376 11.256L17.1276 16.746C17.238 16.6548 17.3484 16.5516 17.4552 16.4436C17.4552 16.4436 17.4552 16.4436 17.4624 16.4412C17.4696 16.4328 17.4696 16.4364 17.4696 16.4328C18.258 15.6444 17.934 14.5932 17.934 14.5932Z" fill="#1427A8"/>
<path d="M11.0472 12.0445C10.8756 12.2761 10.5984 12.3733 10.272 12.3733C9.27477 12.3733 7.78077 11.4769 7.14957 10.8505C6.31797 10.0165 5.01357 7.65366 5.95557 6.95046C6.01197 6.91806 6.06237 6.88566 6.11997 6.84966L0.775169 1.50366C-0.0324306 2.72646 -3.0692e-05 3.70206 -3.0692e-05 3.70206C-3.0692e-05 3.70206 -0.140431 8.13966 4.86237 13.1389C9.59997 17.8753 13.8312 18.0001 14.2632 18.0001C14.2872 18.0001 14.3004 18.0001 14.3004 18.0001C14.3004 18.0001 14.3076 18.0001 14.3148 18.0001C14.448 18.0001 15.3708 17.9725 16.5 17.2273L11.1528 11.8825C11.1192 11.9365 11.0808 11.9905 11.0472 12.0445Z" fill="#1427A8"/>
</g>
<defs>
<clipPath id="clip0">
<rect width="18" height="18" fill="white"/>
</clipPath>
</defs>
</svg>
