<svg width="41" height="40" viewBox="0 0 41 40" fill="none" xmlns="http://www.w3.org/2000/svg">
<path d="M38.2655 0H2.73445C1.22685 0 0 1.238 0 2.759V25.518V28.965C0 30.486 1.22685 31.723 2.73445 31.723H16.3682C16.206 34.459 15.0781 35.862 12.9842 35.862H11.616C10.486 35.862 9.56663 36.79 9.56663 37.93C9.56663 39.07 10.486 40 11.616 40H29.383C30.513 40 31.4334 39.07 31.4334 37.93C31.4334 36.79 30.512 35.862 29.383 35.862H28.0168C25.9239 35.862 24.7959 34.46 24.6338 31.723H38.2655C39.7732 31.723 41 30.487 41 28.965V25.518V2.759C41 1.238 39.7732 0 38.2655 0ZM1.36624 2.759C1.36624 1.997 1.98016 1.379 2.73347 1.379H38.2646C39.0198 1.379 39.6338 1.997 39.6338 2.759V24.828H1.36624V2.759ZM28.0168 37.242H29.384C29.7607 37.242 30.0671 37.551 30.0671 37.93C30.0671 38.311 29.7597 38.619 29.384 38.619H11.616C11.2393 38.619 10.9339 38.31 10.9339 37.93C10.9339 37.551 11.2393 37.242 11.616 37.242H12.9832H28.0168ZM24.6902 35.861H16.3118C17.1531 34.922 17.6484 33.519 17.7482 31.722H23.2527C23.3516 33.52 23.8479 34.922 24.6902 35.861ZM39.6348 28.965C39.6348 29.727 39.0208 30.344 38.2655 30.344H23.9171H17.0829H2.73445C1.98114 30.344 1.36723 29.727 1.36723 28.965V26.207H39.6348V28.965Z" fill="#1427A8"/>
<path d="M18.4511 28.965H22.5508C22.9275 28.965 23.2339 28.656 23.2339 28.276C23.2339 27.896 22.9265 27.587 22.5508 27.587H18.4511C18.0735 27.587 17.768 27.896 17.768 28.276C17.768 28.656 18.0735 28.965 18.4511 28.965Z" fill="#1427A8"/>
<path d="M32.6523 20.32L31.0034 18.655L31.9208 17.729C32.0908 17.557 32.158 17.307 32.1007 17.073C32.0424 16.837 31.8654 16.651 31.6351 16.581L29.384 15.899V9.65503V6.20703C29.384 5.82503 29.0766 5.51703 28.7009 5.51703H9.56666C9.18902 5.51703 8.88354 5.82603 8.88354 6.20703V9.65503V19.309C8.88354 19.691 9.19001 19.999 9.56666 19.999H25.3268L26.0011 22.265C26.0683 22.499 26.2541 22.677 26.4875 22.738C26.7188 22.795 26.9679 22.726 27.138 22.556L28.1038 21.579L29.7548 23.245C29.8823 23.374 30.0563 23.446 30.2372 23.446C30.4181 23.446 30.5921 23.374 30.7196 23.245L32.6523 21.292C32.9193 21.025 32.9193 20.59 32.6523 20.32ZM10.2508 6.89603H28.0168V8.96503H10.2508V6.89603ZM10.2508 18.621V10.345H28.0168V15.486L26.6229 15.064L24.8019 14.513C24.6803 14.476 24.5548 14.474 24.4371 14.505C24.3214 14.535 24.2107 14.596 24.1227 14.686C23.9428 14.866 23.8776 15.129 23.9507 15.373L24.9166 18.623H10.2508V18.621ZM30.2372 21.783L28.7345 20.266C28.5605 20.09 28.3332 20.003 28.1028 20.003C27.8754 20.003 27.6471 20.09 27.4731 20.266L26.9788 20.764L26.4884 19.113L25.6244 16.2L26.0604 16.332L28.5052 17.073H28.5072L30.1462 17.569L29.6173 18.102C29.471 18.25 29.391 18.446 29.391 18.655C29.391 18.864 29.472 19.061 29.6173 19.207L31.204 20.807L30.2372 21.783Z" fill="#3CCFED"/>
<path d="M17.7671 13.104H12.3001C11.9235 13.104 11.617 13.413 11.617 13.792V16.551C11.617 16.932 11.9235 17.24 12.3001 17.24H17.7671C18.1437 17.24 18.4502 16.931 18.4502 16.551V13.792C18.4512 13.413 18.1447 13.104 17.7671 13.104ZM17.0839 15.862H12.9842V14.481H17.0839V15.862Z" fill="#3CCFED"/>
</svg>
