<svg width="40" height="40" viewBox="0 0 40 40" fill="none" xmlns="http://www.w3.org/2000/svg">
<g clip-path="url(#clip0)">
<rect width="39.2727" height="40" fill="white"/>
<path d="M17.187 14.3C17.842 15.284 18.9191 15.871 20.0669 15.871C20.5169 15.871 20.9668 15.779 21.3989 15.6C22.7089 15.051 23.5232 13.819 23.5202 12.383C23.5173 10.953 22.7 9.72897 21.3869 9.18597C20.9658 9.01097 20.5229 8.92297 20.0709 8.92297C18.6663 8.92297 17.412 9.76697 16.8764 11.072C16.4314 12.16 16.5439 13.337 17.187 14.3ZM18.3557 11.266C18.7469 10.679 19.386 10.328 20.0669 10.328C20.3337 10.328 20.5975 10.383 20.8543 10.489C21.6338 10.811 22.1176 11.538 22.1196 12.385C22.1216 13.239 21.6378 13.973 20.8603 14.299C20.6075 14.404 20.3417 14.458 20.0719 14.458C19.2417 14.458 18.498 13.959 18.1785 13.187C17.9097 12.54 17.9754 11.841 18.3557 11.266Z" fill="#3CCFED"/>
<path d="M15.9834 5.17101C15.5026 5.37101 15.5245 5.71901 15.5932 6.74601C15.6062 6.94101 15.6201 7.16501 15.634 7.42101C15.4469 7.59001 15.2707 7.76801 15.1064 7.95401L13.5505 7.87801L13.5077 7.87701C13.0209 7.87701 12.9014 8.17801 12.4545 9.30201C12.3559 9.55101 12.2384 9.84501 12.0961 10.192C11.898 10.675 12.1588 10.906 12.9313 11.585C13.0766 11.714 13.2449 11.86 13.434 12.032C13.4211 12.282 13.4211 12.534 13.435 12.783L12.2812 13.834C11.895 14.186 12.0125 14.462 12.5092 15.624C12.6147 15.87 12.7382 16.16 12.8815 16.505C13.0308 16.862 13.2917 16.934 13.6938 16.934C13.883 16.934 14.1249 16.917 14.4414 16.896C14.6286 16.883 14.8436 16.869 15.0865 16.857C15.2319 17.068 15.3981 17.33 15.5185 17.526C15.5275 17.654 15.5385 18.258 15.5325 20.944V21.046C15.5325 22.155 16.4294 23.056 17.5334 23.056H22.5417C23.6457 23.056 24.5446 22.156 24.5446 21.046V17.672C24.6899 17.432 24.8791 17.121 25.0692 16.837C25.3111 16.85 25.5211 16.862 25.7073 16.875C26.0159 16.894 26.2558 16.909 26.445 16.909C26.8591 16.909 27.1298 16.838 27.2772 16.477L28.0467 14.597C28.2438 14.114 27.984 13.884 27.2115 13.205C27.0661 13.076 26.8989 12.929 26.7088 12.758C26.7237 12.508 26.7237 12.255 26.7088 12.006L27.8625 10.954C28.2478 10.603 28.1293 10.327 27.6346 9.17001C27.53 8.92301 27.4046 8.63201 27.2612 8.28501C27.1119 7.92701 26.8491 7.85601 26.4469 7.85601C26.2538 7.85601 26.0069 7.87301 25.6854 7.89501C25.4923 7.90801 25.2733 7.92201 25.0214 7.93701C24.8542 7.75001 24.677 7.57301 24.4908 7.40501L24.5685 5.84201C24.5944 5.32101 24.3166 5.21001 23.1499 4.74101C22.902 4.64101 22.6094 4.52401 22.2659 4.38201C22.1654 4.34001 22.0768 4.32001 21.9912 4.32001C21.6627 4.32001 21.4327 4.58301 20.8792 5.21801C20.7508 5.36601 20.6045 5.53301 20.4342 5.72601C20.1834 5.71201 19.9335 5.71201 19.6856 5.72701L18.6374 4.56701C18.5378 4.45601 18.4025 4.34001 18.1785 4.34001C17.9197 4.34001 17.5872 4.48401 16.8605 4.79701C16.6146 4.90301 16.3269 5.02801 15.9834 5.17101ZM17.0167 6.90501C17.0048 6.72801 16.9919 6.52301 16.9789 6.28101L17.9316 5.88301C18.0919 6.06401 18.2292 6.21601 18.3457 6.34801C18.9838 7.06801 19.1132 7.20801 19.4796 7.16001C19.9564 7.10601 20.3427 7.12501 20.5567 7.14801C21.0465 7.20101 21.0634 7.15001 21.7692 6.34801C21.8876 6.21401 22.025 6.05801 22.1883 5.87501L23.1419 6.27101C23.129 6.51101 23.1191 6.71601 23.1091 6.89401C23.0524 7.84001 23.0414 8.03701 23.3371 8.27401C23.788 8.63101 23.9801 8.87001 24.1076 9.02701C24.2977 9.26301 24.3923 9.36001 24.8024 9.36001C24.9667 9.36001 25.1966 9.34501 25.5291 9.32601C25.7063 9.31401 25.9124 9.30201 26.1563 9.28801L26.5535 10.246C26.3753 10.406 26.222 10.545 26.0906 10.662C25.3868 11.292 25.2394 11.424 25.2822 11.801C25.3459 12.375 25.3151 12.68 25.2942 12.881C25.2424 13.35 25.2902 13.391 26.0955 14.108C26.2279 14.225 26.3812 14.362 26.5604 14.523L26.1682 15.481C25.9303 15.47 25.7292 15.458 25.554 15.447C25.2374 15.428 25.0095 15.416 24.8432 15.416C24.4888 15.416 24.3306 15.477 24.1733 15.679C23.9015 16.023 23.5133 16.663 23.3042 17.008L23.2425 17.11C23.126 17.302 23.126 17.302 23.132 18.752C23.135 19.285 23.14 20.023 23.14 21.048C23.14 21.38 22.8702 21.65 22.5397 21.65H17.5314C17.2029 21.65 16.9331 21.38 16.9331 21.048L16.9361 18.983C16.9391 17.378 16.9391 17.378 16.8814 17.182L16.8575 17.09C16.7928 16.833 16.071 15.813 15.9755 15.693C15.8172 15.494 15.6639 15.434 15.3244 15.434C15.1562 15.434 14.9302 15.448 14.6037 15.468C14.4285 15.479 14.2224 15.491 13.9835 15.505L13.5863 14.548C13.7685 14.382 13.9238 14.244 14.0562 14.125C14.8476 13.416 14.8944 13.374 14.8466 12.9C14.8257 12.697 14.7938 12.391 14.8576 11.82C14.8974 11.443 14.752 11.311 14.0432 10.683C13.9118 10.566 13.7585 10.43 13.5803 10.27L13.9746 9.31301C14.2055 9.32301 14.4046 9.33501 14.5748 9.34401C14.9083 9.36301 15.1393 9.37601 15.3065 9.37601C15.7376 9.37601 15.8331 9.27801 16.0272 9.03801C16.1547 8.88001 16.3458 8.64201 16.7928 8.28501C17.0874 8.04601 17.0755 7.85001 17.0167 6.90501Z" fill="#3CCFED"/>
<path d="M16.3398 24.076C16.079 24.076 15.9197 24.195 15.8331 24.295C15.7236 24.42 15.6628 24.584 15.6628 24.76C15.6628 25.1 15.8958 25.446 16.3398 25.446H23.5829C24.0269 25.446 24.2588 25.1 24.2588 24.76C24.2588 24.422 24.0279 24.076 23.5829 24.076H16.3398Z" fill="#3CCFED"/>
<path d="M23.7024 27.115C23.7024 26.775 23.4704 26.431 23.0254 26.431H16.8963C16.6355 26.431 16.4762 26.548 16.3896 26.648C16.2801 26.773 16.2203 26.937 16.2203 27.113C16.2203 27.453 16.4513 27.799 16.8963 27.799H23.0254C23.4694 27.799 23.7024 27.453 23.7024 27.115Z" fill="#3CCFED"/>
<path d="M21.3541 29.016H18.5677C18.1944 29.016 17.8878 29.323 17.8878 29.7V29.979C17.8878 31.127 18.8196 32.061 19.9604 32.061C21.1042 32.061 22.034 31.127 22.034 29.979V29.7C22.034 29.322 21.7294 29.016 21.3541 29.016ZM20.5527 30.381C20.4054 30.608 20.1575 30.694 19.9604 30.694C19.7653 30.694 19.5184 30.608 19.3701 30.381H20.5527Z" fill="#3CCFED"/>
<path d="M19.6816 3.092C20.032 3.092 20.3834 2.852 20.3834 2.391V0.69C20.3834 -0.231 18.9818 -0.229 18.9818 0.69V2.391C18.9818 2.852 19.3332 3.092 19.6816 3.092Z" fill="#1427A8"/>
<path d="M12.4186 2.841C12.1399 2.841 11.8741 3.019 11.7566 3.285C11.6461 3.535 11.6939 3.812 11.885 4.025L12.9333 5.192C13.0746 5.35 13.2498 5.433 13.442 5.433C13.7217 5.433 13.9875 5.253 14.105 4.988C14.2145 4.739 14.1677 4.463 13.9756 4.25L12.9263 3.081C12.785 2.925 12.6098 2.841 12.4186 2.841Z" fill="#1427A8"/>
<path d="M7.96882 10.386C7.93995 10.7 8.10221 11.055 8.53027 11.139L10.2017 11.462C10.2534 11.472 10.3042 11.477 10.351 11.477C10.7552 11.477 10.9971 11.153 11.0289 10.831C11.0578 10.518 10.8975 10.163 10.4675 10.079L8.79606 9.754C8.30827 9.665 8.00465 10.027 7.96882 10.386Z" fill="#1427A8"/>
<path d="M11.2102 16.765L9.86427 17.53C9.57558 17.695 9.44716 17.992 9.52978 18.307C9.6144 18.63 9.88915 18.856 10.1987 18.856C10.3182 18.856 10.4377 18.823 10.5541 18.755L11.901 17.99C12.1897 17.827 12.3191 17.53 12.2365 17.217C12.118 16.768 11.6223 16.529 11.2102 16.765Z" fill="#1427A8"/>
<path d="M28.9277 16.223C28.5136 15.985 28.0148 16.219 27.8954 16.668C27.8127 16.979 27.9382 17.275 28.2239 17.442L29.6414 18.267C29.7579 18.334 29.8794 18.369 30.0008 18.369C30.3114 18.369 30.5861 18.144 30.6737 17.822C30.7564 17.51 30.6299 17.215 30.3442 17.048L28.9277 16.223Z" fill="#1427A8"/>
<path d="M31.8564 9.83599C31.8236 9.47799 31.5309 9.10899 31.0341 9.20099L29.2612 9.53299C28.8321 9.61299 28.6669 9.97699 28.6948 10.283C28.7236 10.605 28.9665 10.931 29.3737 10.931C29.4205 10.931 29.4683 10.927 29.519 10.917L31.291 10.587C31.719 10.508 31.8833 10.141 31.8564 9.83599Z" fill="#1427A8"/>
<path d="M25.4753 4.70497C25.5968 4.95897 25.8635 5.12997 26.1363 5.12997C26.3424 5.12997 26.5305 5.03297 26.6669 4.85897L27.6385 3.63097C27.8147 3.40997 27.8485 3.14597 27.7331 2.90597C27.6116 2.65197 27.3458 2.48297 27.0741 2.48297C26.87 2.48297 26.6798 2.57897 26.5405 2.75397L25.5719 3.98097C25.3967 4.20197 25.3608 4.46497 25.4753 4.70497Z" fill="#1427A8"/>
<path d="M36.7024 29.768C38.8456 26.957 39.421 26.204 39.2428 24.588L37.8303 11.816C37.6879 10.525 36.5988 9.54999 35.2987 9.54999C34.6377 9.54999 34.0086 9.81499 33.5298 10.296C32.7424 11.086 32.7443 11.356 32.7722 15.861C32.7802 16.915 32.7881 18.203 32.7881 19.787C31.7986 20.785 30.9306 21.646 30.169 22.402C24.6919 27.836 24.6919 27.836 24.7068 33.812L24.7078 34.486H23.6775C23.2903 34.486 22.9767 34.802 22.9767 35.191V39.298C22.9767 39.759 23.3301 39.999 23.6775 39.999C24.0279 39.999 24.3793 39.759 24.3793 39.298V35.894H34.5203V39.249C34.5203 39.519 34.6427 39.683 34.7453 39.774C35.1166 40.102 35.9249 39.946 35.9249 39.249V35.19C35.9249 34.801 35.6103 34.485 35.2241 34.485H34.5591C34.5571 34.471 34.5621 34.46 34.5591 34.446C34.361 33.55 34.5611 32.612 35.1116 31.876C35.7198 31.061 36.2464 30.365 36.7024 29.768ZM33.1585 34.486H26.1065C26.1045 34.131 26.1015 33.773 26.0965 33.441C26.0527 30.636 26.0219 28.611 27.9461 26.671C29.4812 25.12 30.6379 23.958 31.508 23.085C32.16 22.429 32.6518 21.935 33.0281 21.554C33.5417 21.075 33.6791 21.06 33.9957 21.06C34.6218 21.06 35.1315 21.57 35.1315 22.201C35.1315 22.705 35.1315 22.715 32.8568 24.976C32.2715 25.558 31.5358 26.287 30.616 27.212C30.4089 27.421 30.3482 27.7 30.4547 27.96C30.5672 28.231 30.842 28.421 31.1217 28.421C31.3009 28.421 31.4691 28.347 31.6065 28.208L35.7925 24.003C36.2713 23.523 36.5341 22.882 36.5341 22.2C36.5341 21.516 36.2693 20.876 35.7925 20.396C35.3585 19.96 34.795 19.714 34.1908 19.668V12.091C34.1908 11.32 34.7801 10.971 35.3276 10.971C35.7885 10.971 36.355 11.233 36.4376 11.97L37.8492 24.743C37.9637 25.772 37.6998 26.122 35.6472 28.829C35.1863 29.436 34.6377 30.159 33.9867 31.032C33.2461 32.025 32.9624 33.27 33.1585 34.486Z" fill="#1427A8"/>
<path d="M32.6498 36.758C32.161 36.758 31.7738 37.061 31.6384 37.551C31.5438 37.891 31.5996 38.221 31.7937 38.481C31.9997 38.752 32.3511 38.92 32.7085 38.92C33.1973 38.92 33.5855 38.619 33.7199 38.129C33.8155 37.789 33.7588 37.457 33.5656 37.201C33.3596 36.928 33.0072 36.758 32.6498 36.758Z" fill="#1427A8"/>
<path d="M15.5962 34.486H14.5679L14.5699 33.773C14.5848 27.843 14.5848 27.843 9.06983 22.367C8.31724 21.621 7.46212 20.77 6.48655 19.787V12.092C6.48655 10.692 5.35369 9.55298 3.95703 9.55298C2.66589 9.55498 1.5858 10.529 1.44444 11.816L0.0308565 24.588C-0.147335 26.209 0.425067 26.957 2.55639 29.75C3.01531 30.352 3.54988 31.051 4.16608 31.877C4.71459 32.613 4.91668 33.549 4.71758 34.445C4.71459 34.459 4.71858 34.472 4.71659 34.486H4.0536C3.66635 34.486 3.35178 34.802 3.35178 35.191V39.25C3.35178 39.52 3.47323 39.684 3.57576 39.775C3.94807 40.103 4.75541 39.947 4.75541 39.25V35.895H14.8974V39.299C14.8974 39.76 15.2498 40 15.5972 40C15.9486 40 16.3 39.76 16.3 39.299V35.192C16.299 34.803 15.9834 34.486 15.5962 34.486ZM5.287 31.033C4.63496 30.158 4.08545 29.433 3.62454 28.826C1.57385 26.123 1.31204 25.775 1.42453 24.744L2.83712 11.971C2.90979 11.309 3.46128 10.963 3.96798 10.963C4.26265 10.963 4.54138 11.08 4.75441 11.292L4.78627 11.324C5.10184 11.639 5.10781 11.645 5.09288 15.829C5.08989 16.836 5.08491 18.098 5.08292 19.669C4.47767 19.715 3.91423 19.961 3.48219 20.397C3.00436 20.877 2.73956 21.518 2.73956 22.201C2.73956 22.884 3.00436 23.523 3.48219 24.004L7.66719 28.209C7.80656 28.35 7.97579 28.422 8.15299 28.422C8.43272 28.422 8.70648 28.233 8.81896 27.961C8.92548 27.701 8.86675 27.42 8.65869 27.213C7.73588 26.285 7.00022 25.555 6.41289 24.971C4.14219 22.715 4.14219 22.705 4.14219 22.201C4.14219 21.56 4.64192 21.06 5.27903 21.06C5.5956 21.06 5.73397 21.078 6.25859 21.566C6.63488 21.949 7.12764 22.445 7.78167 23.101C8.64874 23.972 9.80051 25.128 11.3276 26.671C13.2518 28.61 13.221 30.638 13.1772 33.444C13.1732 33.776 13.1702 34.13 13.1662 34.485H6.11623C6.31135 33.27 6.02863 32.023 5.287 31.033Z" fill="#1427A8"/>
<path d="M6.62494 36.758C6.26756 36.758 5.91615 36.928 5.70909 37.201C5.51497 37.457 5.45823 37.789 5.55479 38.129C5.68918 38.619 6.07543 38.92 6.56521 38.92C6.92358 38.92 7.27399 38.752 7.48005 38.481C7.67517 38.221 7.72992 37.891 7.63634 37.551C7.49996 37.061 7.11272 36.758 6.62494 36.758Z" fill="#1427A8"/>
</g>
<defs>
<clipPath id="clip0">
<rect width="39.2727" height="40" fill="white"/>
</clipPath>
</defs>
</svg>
