<svg width="50" height="40" viewBox="0 0 50 40" fill="none" xmlns="http://www.w3.org/2000/svg">
<g clip-path="url(#clip0)">
<path d="M27.9384 11.926C26.9169 11.926 26.0904 12.746 26.0904 13.756C26.0904 13.863 26.1045 13.966 26.1217 14.069L20.6211 17.81C20.3453 17.646 20.025 17.546 19.6784 17.546C19.4167 17.546 19.1682 17.601 18.9428 17.698L17.0554 15.549C17.1049 15.384 17.1393 15.214 17.1393 15.033C17.1393 14.023 16.3128 13.203 15.2913 13.203C14.2688 13.203 13.4413 14.023 13.4413 15.033C13.4413 15.054 13.4463 15.074 13.4473 15.095L8.3216 18.598C8.00131 18.332 7.59311 18.166 7.14247 18.166C6.11996 18.166 5.29346 18.986 5.29346 19.997C5.29346 21.007 6.11996 21.827 7.14247 21.827C8.16499 21.827 8.99048 21.007 8.99048 19.997C8.99048 19.924 8.97735 19.855 8.96926 19.784L14.004 16.344C14.3375 16.665 14.7901 16.864 15.2913 16.864C15.6237 16.864 15.9309 16.77 16.1996 16.618L17.984 18.647C17.885 18.871 17.8294 19.117 17.8294 19.376C17.8294 20.386 18.6559 21.206 19.6784 21.206C20.7009 21.206 21.5264 20.386 21.5264 19.376C21.5264 19.2 21.4941 19.034 21.4476 18.873L26.831 15.212C27.1412 15.443 27.5211 15.585 27.9384 15.585C28.9609 15.585 29.7874 14.765 29.7874 13.755C29.7874 12.745 28.9609 11.926 27.9384 11.926Z" fill="#3CCFED"/>
<path d="M47.0024 35.911C46.8933 35.911 46.7832 35.886 46.6811 35.831C46.3527 35.654 46.2305 35.248 46.4073 34.923C47.4551 33.004 48.0088 30.82 48.0088 28.608C48.0088 24.598 46.2406 20.88 43.1569 18.408C42.8669 18.175 42.8214 17.753 43.0568 17.466C43.2923 17.178 43.7176 17.133 44.0086 17.367C47.4106 20.096 49.3617 24.193 49.3617 28.608C49.3617 31.043 48.7514 33.447 47.5976 35.561C47.4753 35.784 47.2429 35.911 47.0024 35.911Z" fill="#1427A8"/>
<path d="M41.1826 17.021C41.0795 17.021 40.9765 16.998 40.8795 16.95C40.6956 16.859 40.5117 16.773 40.3247 16.691C39.9822 16.543 39.8266 16.147 39.9772 15.808C40.1267 15.469 40.5268 15.314 40.8694 15.464C41.0775 15.555 41.2826 15.651 41.4847 15.751C41.8191 15.917 41.9545 16.319 41.7868 16.65C41.6686 16.886 41.4301 17.021 41.1826 17.021Z" fill="#1427A8"/>
<path d="M37.72 17.449V7.658V2.442C37.72 1.096 36.6126 0 35.2526 0H2.46738C1.10739 0 0 1.096 0 2.442V7.658V28.668C0 30.015 1.10739 31.11 2.46738 31.11H23.3855C24.5778 36.195 29.1821 40 34.6767 40C37.0743 40 39.3043 39.276 41.1553 38.038C41.0421 37.978 40.936 37.901 40.8441 37.808L40.1419 37.091C38.5596 38.083 36.6853 38.66 34.6767 38.66C29.0276 38.66 24.4313 34.111 24.4313 28.519C24.4313 22.927 29.0276 18.378 34.6767 18.378C38.11 18.378 41.1533 20.06 43.0134 22.633L43.7459 22.218C43.9046 22.128 44.0824 22.076 44.2643 22.062C42.7265 19.835 40.4157 18.176 37.72 17.449ZM1.45092 2.442C1.45092 1.886 1.90762 1.435 2.46839 1.435H35.2526C35.8134 1.435 36.27 1.886 36.27 2.442V6.221H1.45092V2.442ZM23.0774 28.52C23.0774 28.91 23.0986 29.294 23.137 29.674H2.46738C1.90661 29.674 1.44991 29.223 1.44991 28.668V7.658H36.269V17.154C35.7467 17.083 35.2172 17.039 34.6767 17.039C28.2809 17.039 23.0774 22.188 23.0774 28.52Z" fill="#1427A8"/>
<path d="M29.4004 35.973C29.268 35.973 29.1347 35.935 29.0175 35.855C26.933 34.438 25.5528 32.202 25.2356 29.719C25.1881 29.352 25.4508 29.017 25.8216 28.97C26.1894 28.924 26.5309 29.183 26.5784 29.55C26.8481 31.654 28.0172 33.549 29.7843 34.75C30.0935 34.959 30.1713 35.377 29.9602 35.682C29.8278 35.871 29.6166 35.973 29.4004 35.973Z" fill="#3CCFED"/>
<path d="M41.7494 37.62C41.5675 37.623 41.3877 37.555 41.2523 37.416L33.5763 29.587C33.4298 29.44 33.3621 29.233 33.3914 29.027C33.4197 28.822 33.543 28.642 33.7249 28.539L44.0258 22.706C44.1865 22.615 44.3764 22.594 44.5532 22.645C44.7301 22.696 44.8776 22.817 44.9625 22.978C46.5013 25.905 46.2598 29.164 46.1961 29.787C45.89 32.77 44.4643 35.494 42.1798 37.456C42.0566 37.563 41.904 37.617 41.7494 37.62ZM35.1566 29.274L41.7646 36.014C43.5125 34.32 44.6028 32.082 44.8513 29.652C44.9038 29.139 45.0908 26.64 44.0642 24.23L35.1566 29.274Z" fill="#3CCFED"/>
<path d="M19.8269 28.238H9.67148C9.27136 28.238 8.94601 27.917 8.94601 27.52C8.94601 27.123 9.27035 26.802 9.67148 26.802H19.8269C20.227 26.802 20.5534 27.123 20.5534 27.52C20.5534 27.917 20.2281 28.238 19.8269 28.238Z" fill="#1427A8"/>
<path d="M7.73758 28.238H6.77063C6.37052 28.238 6.04416 27.917 6.04416 27.52C6.04416 27.123 6.36951 26.802 6.77063 26.802H7.73758C8.13769 26.802 8.46304 27.123 8.46304 27.52C8.46304 27.917 8.1387 28.238 7.73758 28.238Z" fill="#1427A8"/>
<path d="M26.4743 3.21198H14.197C13.7919 3.21198 13.4625 3.53598 13.4625 3.93798C13.4625 4.33798 13.7908 4.66298 14.197 4.66298H26.4743C26.8785 4.66298 27.2088 4.33898 27.2088 3.93798C27.2088 3.53598 26.8795 3.21198 26.4743 3.21198Z" fill="#1427A8"/>
<path d="M3.99711 4.80898C4.48412 4.80898 4.87918 4.41798 4.87918 3.93798C4.87918 3.45598 4.48412 3.06598 3.99711 3.06598C3.5101 3.06598 3.11504 3.45598 3.11504 3.93798C3.11504 4.41798 3.5101 4.80898 3.99711 4.80898Z" fill="#1427A8"/>
<path d="M7.39709 4.80898C7.8841 4.80898 8.27916 4.41798 8.27916 3.93798C8.27916 3.45598 7.8841 3.06598 7.39709 3.06598C6.91008 3.06598 6.51501 3.45598 6.51501 3.93798C6.51501 4.41798 6.91008 4.80898 7.39709 4.80898Z" fill="#1427A8"/>
<path d="M10.6071 4.80898C11.0941 4.80898 11.4892 4.41798 11.4892 3.93798C11.4892 3.45598 11.0941 3.06598 10.6071 3.06598C10.1211 3.06598 9.72502 3.45598 9.72502 3.93798C9.72502 4.41798 10.1211 4.80898 10.6071 4.80898Z" fill="#1427A8"/>
</g>
<defs>
<clipPath id="clip0">
<rect width="49.3617" height="40" fill="white"/>
</clipPath>
</defs>
</svg>
