<svg width="37" height="40" viewBox="0 0 37 40" fill="none" xmlns="http://www.w3.org/2000/svg">
<rect width="37" height="40" fill="white"/>
<path d="M10.0375 35.201H0.728935C0.327112 35.201 0 35.525 0 35.925C0 36.323 0.327112 36.648 0.729944 36.648H10.0385C10.4413 36.648 10.7684 36.324 10.7684 35.925C10.7684 35.525 10.4413 35.201 10.0375 35.201Z" fill="#1427A8"/>
<path d="M37 35.925C37 35.828 36.9788 35.735 36.9425 35.646C36.9051 35.56 36.8516 35.481 36.785 35.415L33.3998 32.062C33.1141 31.78 32.6527 31.78 32.368 32.062C32.0833 32.344 32.0833 32.801 32.368 33.084L34.5073 35.201H18.5C10.9704 35.201 4.84413 29.134 4.84413 21.676C4.84413 14.218 10.9694 8.151 18.5 8.151C26.0307 8.151 32.156 14.218 32.156 21.676C32.156 26.37 29.7531 30.661 25.7288 33.154C25.3866 33.365 25.2836 33.811 25.4976 34.15C25.7117 34.489 26.1619 34.59 26.5032 34.379C30.9576 31.621 33.6159 26.873 33.6159 21.676C33.6159 17.382 31.7713 13.516 28.8384 10.784L30.3478 9.289L31.524 10.454C31.6673 10.595 31.8531 10.666 32.0399 10.666C32.2276 10.666 32.4134 10.595 32.5568 10.454C32.8415 10.172 32.8415 9.714 32.5568 9.432L29.1716 6.079C28.8859 5.797 28.4245 5.797 28.1398 6.079C27.855 6.361 27.855 6.819 28.1398 7.101L29.3159 8.266L27.7238 9.842C25.7753 8.349 23.4542 7.322 20.9221 6.916V4.798H22.7303C23.1331 4.798 23.4612 4.474 23.4612 4.075V0.723C23.4602 0.324 23.1331 0 22.7303 0H14.2698C13.867 0 13.5399 0.324 13.5399 0.723V4.076C13.5399 4.475 13.867 4.799 14.2698 4.799H16.079V6.917C13.5459 7.324 11.2248 8.351 9.2763 9.843L7.68516 8.266L8.86236 7.101C9.14707 6.818 9.14707 6.361 8.86236 6.079C8.57765 5.797 8.11525 5.797 7.83054 6.079L4.44433 9.432C4.15962 9.714 4.15962 10.172 4.44433 10.454C4.58668 10.595 4.77346 10.666 4.96024 10.666C5.14701 10.666 5.33379 10.595 5.47615 10.454L6.65335 9.289L8.1627 10.784C5.2298 13.517 3.38525 17.383 3.38525 21.677C3.38525 29.934 10.1668 36.649 18.5011 36.649H34.5083L32.369 38.766C32.0843 39.049 32.0843 39.506 32.369 39.788C32.5103 39.929 32.6981 40 32.8849 40C33.0717 40 33.2574 39.929 33.4008 39.787L36.786 36.436C36.8526 36.37 36.9062 36.289 36.9435 36.203C36.9799 36.116 37 36.021 37 35.925ZM14.9987 1.446H22.0003V3.353H14.9987V1.446ZM17.5379 4.798H19.4622V6.753C19.1422 6.733 18.8241 6.705 18.499 6.705C18.1739 6.705 17.8569 6.733 17.5369 6.753V4.798H17.5379Z" fill="#1427A8"/>
<path d="M24.0296 13.103C24.3689 13.317 24.8192 13.221 25.0382 12.884C25.2543 12.548 25.1554 12.101 24.8161 11.885C22.9322 10.69 20.7484 10.058 18.5 10.058C13.7519 10.058 9.50244 12.861 7.67203 17.201C7.51756 17.569 7.69323 17.993 8.06476 18.147C8.15664 18.185 8.25154 18.203 8.34443 18.203C8.63014 18.203 8.90173 18.036 9.01884 17.759C10.6211 13.959 14.3425 11.505 18.499 11.505C20.4678 11.503 22.381 12.056 24.0296 13.103Z" fill="#3CCFED"/>
<path d="M27.0644 13.212C26.7787 12.93 26.3173 12.93 26.0326 13.212L20.2415 18.947C19.7367 18.63 19.1421 18.439 18.501 18.439C16.6988 18.439 15.2329 19.891 15.2329 21.676C15.2329 22.308 15.4237 22.894 15.7417 23.393L13.7528 25.375C13.4691 25.659 13.4701 26.116 13.7568 26.396C13.8982 26.538 14.0849 26.607 14.2707 26.607C14.4585 26.607 14.6463 26.536 14.7886 26.393L16.7735 24.413C17.2773 24.726 17.8659 24.913 18.501 24.913C20.3031 24.913 21.7701 23.462 21.7701 21.676C21.7701 21.051 21.5803 20.471 21.2693 19.974L27.0654 14.234C27.3491 13.952 27.3491 13.495 27.0644 13.212ZM18.5 23.468C18.1314 23.468 17.7872 23.357 17.5015 23.168C17.4691 23.048 17.4166 22.933 17.3217 22.839C17.2289 22.747 17.1138 22.695 16.9946 22.666C16.8038 22.382 16.6917 22.043 16.6917 21.676C16.6917 20.689 17.5025 19.885 18.501 19.885C18.9149 19.885 19.2935 20.029 19.5994 20.264C19.6347 20.337 19.6761 20.409 19.7387 20.469C19.7973 20.528 19.868 20.567 19.9386 20.601C20.1688 20.902 20.3102 21.271 20.3102 21.676C20.3092 22.664 19.4974 23.468 18.5 23.468Z" fill="#3CCFED"/>
</svg>
