<svg width="40" height="40" viewBox="0 0 40 40" fill="none" xmlns="http://www.w3.org/2000/svg">
<g clip-path="url(#clip0)">
<path d="M10.697 21.953C10.3966 21.83 10.0553 21.976 9.93394 22.275C9.68919 22.879 9.10918 23.27 8.45653 23.27C8.03072 23.27 7.62978 23.104 7.32833 22.803C7.17611 22.651 7.05872 22.473 6.97913 22.278C6.85775 21.977 6.5175 21.833 6.21704 21.954C5.91659 22.075 5.77233 22.417 5.89271 22.716C6.03199 23.06 6.23595 23.368 6.49959 23.632C7.0229 24.155 7.71833 24.443 8.45554 24.443C9.58772 24.443 10.5935 23.765 11.0184 22.718C11.1407 22.416 10.9965 22.074 10.697 21.953Z" fill="#3CCFED"/>
<path d="M5.76238 18.731C5.43805 18.731 5.17639 18.994 5.17639 19.318V19.577C5.17639 19.901 5.43805 20.163 5.76238 20.163C6.08572 20.163 6.34737 19.901 6.34737 19.577V19.318C6.34737 18.994 6.08572 18.731 5.76238 18.731Z" fill="#1427A8"/>
<path d="M11.1517 18.731C10.8273 18.731 10.5647 18.994 10.5647 19.318V19.577C10.5647 19.901 10.8273 20.163 11.1517 20.163C11.475 20.163 11.7367 19.901 11.7367 19.577V19.318C11.7367 18.994 11.475 18.731 11.1517 18.731Z" fill="#1427A8"/>
<path d="M23.8395 17.461C23.54 17.34 23.1978 17.483 23.0764 17.783C22.7023 18.705 21.8179 19.3 20.824 19.3C20.1753 19.3 19.5634 19.047 19.1038 18.588C18.872 18.356 18.6919 18.085 18.5705 17.785C18.4492 17.484 18.1089 17.34 17.8085 17.461C17.508 17.582 17.3628 17.924 17.4841 18.224C17.6652 18.671 17.9308 19.073 18.2751 19.417C18.9566 20.098 19.8609 20.471 20.823 20.471C22.2964 20.471 23.6067 19.59 24.1598 18.225C24.2842 17.925 24.1399 17.582 23.8395 17.461Z" fill="#3CCFED"/>
<path d="M17.0961 13.02C16.7718 13.02 16.5101 13.283 16.5101 13.606V13.966C16.5101 14.289 16.7728 14.552 17.0961 14.552C17.4195 14.552 17.6821 14.289 17.6821 13.966V13.606C17.6811 13.282 17.4195 13.02 17.0961 13.02Z" fill="#1427A8"/>
<path d="M24.5548 13.02C24.2305 13.02 23.9678 13.283 23.9678 13.606V13.966C23.9678 14.289 24.2305 14.552 24.5548 14.552C24.8771 14.552 25.1398 14.289 25.1398 13.966V13.606C25.1398 13.282 24.8771 13.02 24.5548 13.02Z" fill="#1427A8"/>
<path d="M36.3263 26.691C36.0716 26.49 35.7035 26.535 35.5035 26.789C35.3025 27.043 35.3473 27.41 35.601 27.611C37.1232 28.81 37.9957 30.611 37.9957 32.547C37.9957 36.01 35.1782 38.826 31.715 38.826C28.2518 38.826 25.4343 36.01 25.4343 32.547C25.4343 29.084 28.2518 26.268 31.715 26.268C32.3676 26.268 33.0133 26.366 33.6291 26.563C33.9375 26.661 34.2669 26.491 34.3653 26.184C34.4638 25.875 34.2937 25.545 33.9843 25.448C33.2541 25.214 32.49 25.094 31.715 25.094C30.0555 25.094 28.5224 25.639 27.2818 26.559C26.457 26.207 25.5805 26.028 24.6712 26.028H24.2056V24.688C24.9915 24.323 25.7208 23.829 26.3655 23.217C27.7235 21.92 28.5771 20.218 28.8 18.372H29.9759C31.2583 18.372 32.302 17.329 32.302 16.046V15.224C32.302 14.313 31.7747 13.523 31.0106 13.142V6.158C31.0106 3.939 29.2049 2.134 26.9853 2.134H25.9536C25.2701 0.833 23.8982 0 22.4227 0H17.5518C16.2326 0 14.9492 0.373 13.8418 1.078C13.5692 1.252 13.4887 1.614 13.6618 1.887C13.8359 2.16 14.198 2.241 14.4706 2.067C15.3899 1.481 16.4554 1.172 17.5508 1.172H22.4217C23.4932 1.172 24.4871 1.794 24.9557 2.759L25.0622 2.977C25.1597 3.178 25.3646 3.306 25.5885 3.306H26.9833C28.5572 3.306 29.8356 4.586 29.8356 6.159V12.898H28.8567V10.117C28.8567 8.086 27.9931 6.139 26.4859 4.776C26.2431 4.556 25.8989 4.485 25.5895 4.591C25.2801 4.697 25.0522 4.964 24.9955 5.288C24.5369 7.894 22.2795 9.788 19.6271 9.788H13.3743H12.4261C12.1028 9.788 11.8401 10.05 11.8401 10.373C11.8401 10.697 12.1028 10.96 12.4261 10.96H12.7883V12.898H11.8083V6.915C11.8083 5.68 12.1943 4.503 12.9246 3.513C13.1166 3.252 13.0609 2.886 12.8002 2.694C12.5405 2.503 12.1734 2.557 11.9814 2.817C11.1019 4.011 10.6363 5.428 10.6363 6.916V13.143C9.87126 13.524 9.34496 14.314 9.34496 15.225V16.047C9.34496 16.055 9.34596 16.064 9.34596 16.071H9.25144C9.13504 16.071 9.02163 16.032 8.9301 15.961L7.02489 14.48C6.78214 14.29 6.46974 14.225 6.17128 14.3C5.87182 14.375 5.62807 14.578 5.50172 14.862L5.09979 15.76C5.01522 15.948 4.82818 16.071 4.62025 16.071H3.65919V13.281C3.65919 12.797 4.05316 12.403 4.53767 12.403H6.14044C6.46477 12.403 6.72642 12.14 6.72642 11.817V11.285C6.72642 11.058 6.91048 10.874 7.13632 10.874H8.99178C9.31611 10.874 9.57777 10.612 9.57777 10.288C9.57777 9.965 9.31512 9.703 8.99178 9.703H7.13731C6.2837 9.703 5.58429 10.384 5.55644 11.231H4.53767C3.40649 11.231 2.48721 12.151 2.48721 13.281V16.262V16.657V18.643H1.84253C0.82675 18.643 0 19.471 0 20.486V21.08C0 22.098 0.82675 22.924 1.84253 22.924H2.55089C2.84139 24.922 4.11186 26.586 5.85092 27.43V28.131H5.67781C3.14881 28.131 1.02374 30.026 0.734226 32.537L0.174105 37.379C0.149233 37.598 0.21788 37.82 0.366118 37.986C0.513361 38.152 0.726267 38.248 0.949121 38.248H7.98296C8.3073 38.248 8.56895 37.984 8.56895 37.662C8.56895 37.338 8.3063 37.074 7.98296 37.074H4.24219V33.814C4.24219 33.49 3.97954 33.228 3.65621 33.228C3.33187 33.228 3.07022 33.49 3.07022 33.814V37.074H1.38886L1.89725 32.674C2.11911 30.752 3.74376 29.305 5.67781 29.305H5.88773C6.09268 30.537 7.16616 31.48 8.45653 31.48C9.15196 31.48 9.80659 31.209 10.2991 30.716C10.6891 30.327 10.9398 29.837 11.0273 29.304H11.2362H11.2402C10.7786 30.085 10.4712 30.972 10.3617 31.923L9.58573 38.622C9.55886 38.864 9.63647 39.106 9.79863 39.288C9.9608 39.47 10.1926 39.573 10.4354 39.573H29.2357C30.0107 39.85 30.8464 40 31.715 40C35.8239 40 39.1667 36.656 39.1667 32.547C39.1667 30.25 38.131 28.115 36.3263 26.691ZM10.5199 15.224C10.5199 14.587 11.0373 14.07 11.673 14.07H13.3752C13.6986 14.07 13.9612 13.807 13.9612 13.484V10.96H19.6281C22.6814 10.96 25.3039 8.895 26.0451 5.981C27.0937 7.094 27.6857 8.577 27.6857 10.116V13.483C27.6857 13.806 27.9483 14.069 28.2717 14.069H29.9749C30.6106 14.069 31.129 14.587 31.129 15.223V16.045C31.129 16.682 30.6106 17.199 29.9749 17.199H28.2617C27.9503 17.199 27.6917 17.444 27.6757 17.755C27.5842 19.513 26.8321 21.15 25.5556 22.366C24.9219 22.97 24.1916 23.438 23.3997 23.759C23.3928 23.761 23.3858 23.765 23.3788 23.769C22.574 24.089 21.7094 24.259 20.823 24.259C19.9176 24.259 19.0531 24.083 18.2611 23.765C18.2512 23.761 18.2412 23.757 18.2323 23.753C15.8376 22.778 14.1105 20.488 13.9702 17.755C13.9543 17.444 13.6976 17.199 13.3852 17.199H11.672C11.0353 17.199 10.5189 16.681 10.5189 16.045V15.224H10.5199ZM23.0326 25.123V27.588C23.0326 28.176 22.8038 28.731 22.3859 29.151C21.9701 29.567 21.4159 29.797 20.825 29.797C19.6062 29.797 18.6153 28.805 18.6153 27.588V25.125C19.3177 25.324 20.0589 25.432 20.825 25.432C21.5801 25.432 22.3232 25.326 23.0326 25.123ZM9.89016 28.875C9.89016 29.258 9.74093 29.617 9.47032 29.889C9.19872 30.16 8.83956 30.309 8.45653 30.309C7.6656 30.309 7.0229 29.666 7.0229 28.875V27.854C7.48254 27.965 7.96307 28.028 8.45653 28.028C8.94502 28.028 9.42654 27.967 9.89016 27.854V28.875ZM11.2352 28.131H11.0631V27.428C11.6113 27.162 12.1207 26.811 12.5734 26.379C13.2479 25.736 13.7692 24.934 14.0806 24.061C14.1901 23.756 14.0309 23.42 13.7264 23.313C13.421 23.204 13.0857 23.364 12.9773 23.668C12.7276 24.371 12.3077 25.014 11.7655 25.531C11.3218 25.955 10.8074 26.285 10.2513 26.51C10.2513 26.51 10.2493 26.51 10.2483 26.51C9.68621 26.737 9.08032 26.856 8.45852 26.856C7.82577 26.856 7.22188 26.733 6.66872 26.51C6.66275 26.508 6.65579 26.506 6.64982 26.504C4.97443 25.822 3.76664 24.221 3.66715 22.309C3.65123 21.996 3.39356 21.752 3.08315 21.752H1.84253C1.47243 21.752 1.17198 21.451 1.17198 21.08V20.486C1.17198 20.117 1.47343 19.815 1.84253 19.815H3.0732C3.39654 19.815 3.6582 19.552 3.6582 19.228V17.242H4.62025C5.28782 17.242 5.89569 16.848 6.16829 16.238L6.47969 15.54L8.2088 16.885C8.50528 17.115 8.87438 17.242 9.25045 17.242H9.67825C10.0862 17.918 10.8263 18.372 11.672 18.372H12.848C13.1882 21.193 14.981 23.547 17.4433 24.687V26.027H16.9777C15.0407 26.027 13.2807 26.859 12.057 28.201C11.7874 28.156 11.5118 28.131 11.2352 28.131ZM14.7671 38.402V33.666C14.7671 33.342 14.5054 33.08 14.1811 33.08C13.8578 33.08 13.5951 33.342 13.5951 33.666V38.402H10.7915L11.5248 32.058C11.8451 29.288 14.1891 27.199 16.9777 27.199H17.4433V27.588C17.4433 29.451 18.9595 30.969 20.824 30.969C21.7283 30.969 22.5779 30.617 23.2147 29.979C23.8534 29.338 24.2046 28.489 24.2046 27.588V27.199H24.6692C25.2273 27.199 25.7675 27.281 26.2889 27.443C25.0333 28.777 24.2623 30.574 24.2623 32.547C24.2623 34.92 25.3776 37.037 27.1106 38.402H14.7671Z" fill="#1427A8"/>
<path d="M35.8766 30.799H33.464V28.387C33.464 27.924 33.0889 27.549 32.6263 27.549H30.8037C30.342 27.549 29.966 27.924 29.966 28.387V30.799H27.5544C27.0927 30.799 26.7167 31.174 26.7167 31.635V33.459C26.7167 33.92 27.0927 34.295 27.5544 34.295H29.966V36.707C29.966 37.17 30.342 37.545 30.8037 37.545H32.6263C33.0889 37.545 33.464 37.17 33.464 36.707V34.295H35.8766C36.3382 34.295 36.7133 33.92 36.7133 33.459V31.635C36.7123 31.174 36.3372 30.799 35.8766 30.799ZM35.5413 33.123H33.1297C32.6681 33.123 32.292 33.498 32.292 33.961V36.373H31.1379V33.961C31.1379 33.498 30.7629 33.123 30.3002 33.123H27.8886V31.971H30.3002C30.7629 31.971 31.1379 31.594 31.1379 31.133V28.721H32.292V31.133C32.292 31.594 32.6681 31.971 33.1297 31.971H35.5413V33.123Z" fill="#3CCFED"/>
</g>
<defs>
<clipPath id="clip0">
<rect width="39.1667" height="40" fill="white"/>
</clipPath>
</defs>
</svg>
