<svg width="42" height="40" viewBox="0 0 42 40" fill="none" xmlns="http://www.w3.org/2000/svg">
<g clip-path="url(#clip0)">
<rect width="41.2903" height="40" fill="white"/>
<path d="M25.2895 28.347C26.0211 27.74 26.0341 27.676 25.6164 26.621C25.5556 26.47 25.4858 26.295 25.4091 26.09C25.2506 25.676 24.9197 25.641 24.5928 25.641C24.4841 25.641 24.3605 25.646 24.219 25.652C24.1253 25.656 24.0246 25.661 23.915 25.664C23.8631 25.605 23.8113 25.55 23.7565 25.495C23.7675 25.361 23.7784 25.242 23.7894 25.137C23.8811 24.201 23.8442 24.147 22.7936 23.692C22.6481 23.629 22.4777 23.554 22.2833 23.467C22.1816 23.422 22.0889 23.402 21.9952 23.402C21.6832 23.402 21.461 23.643 21.1251 24.009C21.0623 24.075 20.9965 24.148 20.9247 24.225C20.848 24.22 20.7722 24.217 20.6955 24.217H20.6925C20.6078 24.117 20.534 24.028 20.4662 23.946C20.1373 23.546 19.9718 23.345 19.6618 23.345C19.4495 23.345 19.1984 23.445 18.7418 23.626C18.5933 23.686 18.4209 23.754 18.2215 23.829C17.7411 24.014 17.7581 24.421 17.784 25.035C17.788 25.127 17.7929 25.223 17.7949 25.328C17.7381 25.381 17.6813 25.432 17.6265 25.488C17.4949 25.477 17.3773 25.466 17.2736 25.456C17.0723 25.436 16.9168 25.421 16.7912 25.421C16.2739 25.421 16.1623 25.682 15.8293 26.454C15.7655 26.602 15.6918 26.77 15.6051 26.967C15.3968 27.438 15.6938 27.713 16.1453 28.13C16.2121 28.192 16.2839 28.257 16.3596 28.33C16.3546 28.406 16.3526 28.484 16.3516 28.561C16.251 28.647 16.1603 28.722 16.0795 28.789C15.3529 29.391 15.3399 29.454 15.7606 30.515C15.8204 30.665 15.8891 30.839 15.9659 31.041C16.1244 31.455 16.4613 31.49 16.7932 31.49C16.9008 31.49 17.0244 31.484 17.164 31.478C17.2547 31.474 17.3534 31.47 17.46 31.468C17.5119 31.526 17.5637 31.583 17.6195 31.637C17.6095 31.767 17.5976 31.882 17.5876 31.987C17.4969 32.932 17.5338 32.986 18.5734 33.436C18.7219 33.5 18.8943 33.575 19.0927 33.664C19.1944 33.71 19.2881 33.731 19.3808 33.731C19.6937 33.731 19.917 33.489 20.2529 33.121C20.3147 33.056 20.3805 32.983 20.4513 32.908C20.529 32.912 20.6058 32.914 20.6835 32.914C20.7513 32.995 20.8131 33.07 20.8709 33.142C21.1819 33.523 21.4052 33.797 21.7391 33.797C21.8218 33.797 21.9055 33.78 21.9962 33.745C22.2135 33.662 22.3969 33.596 22.5574 33.537C23.588 33.162 23.6259 33.109 23.592 32.132C23.588 32.033 23.584 31.925 23.5801 31.804C23.6379 31.752 23.6937 31.699 23.7485 31.644C23.8761 31.655 23.9897 31.665 24.0924 31.675C24.2947 31.695 24.4522 31.71 24.5788 31.71C25.1011 31.71 25.2147 31.448 25.5496 30.668C25.6124 30.522 25.6852 30.356 25.7699 30.164C25.9792 29.693 25.6812 29.42 25.2307 29.004C25.1639 28.942 25.0911 28.876 25.0164 28.803C25.0204 28.726 25.0224 28.648 25.0224 28.571C25.121 28.486 25.2097 28.412 25.2895 28.347ZM22.9521 30.474C22.8624 30.577 22.7388 30.718 22.4637 30.925C22.1657 31.15 22.1746 31.398 22.1936 31.942C22.1966 32.013 22.1986 32.092 22.2016 32.177L21.9613 32.269C21.9055 32.206 21.8567 32.145 21.8108 32.09C21.4909 31.703 21.3294 31.508 21.0075 31.508C20.9845 31.508 20.9596 31.509 20.9347 31.511C20.5858 31.542 20.3945 31.519 20.2649 31.502C19.8911 31.457 19.8761 31.495 19.298 32.106L19.2143 32.194L18.9771 32.088C18.985 32.001 18.993 31.922 18.999 31.85C19.0478 31.329 19.0738 31.068 18.7857 30.824C18.5156 30.597 18.395 30.442 18.3162 30.34C18.1478 30.124 18.068 30.074 17.6693 30.074C17.5577 30.074 17.4162 30.078 17.2308 30.083L17.0892 30.087L16.9965 29.843C17.0623 29.789 17.1221 29.739 17.1779 29.693C17.5936 29.345 17.783 29.188 17.7521 28.817C17.7232 28.468 17.7461 28.272 17.762 28.143C17.8049 27.787 17.7571 27.741 17.175 27.184L17.0743 27.088L17.1789 26.851C17.2647 26.858 17.3434 26.866 17.4152 26.872C17.6006 26.89 17.7461 26.902 17.8637 26.902C18.086 26.902 18.2674 26.861 18.4398 26.657C18.6651 26.389 18.8186 26.267 18.9213 26.188C19.2013 25.968 19.1993 25.901 19.1784 25.084L19.1754 24.954L19.4176 24.862C19.4705 24.925 19.5193 24.983 19.5632 25.037C19.913 25.458 20.0914 25.656 20.4443 25.619C20.7932 25.59 20.9875 25.613 21.1171 25.629C21.4839 25.678 21.5008 25.638 22.0839 25.024L22.1647 24.939L22.3999 25.044C22.3919 25.131 22.386 25.208 22.379 25.281C22.3291 25.803 22.3042 26.067 22.5913 26.309C22.8584 26.534 22.972 26.681 23.0578 26.788C23.2262 27.007 23.3089 27.057 23.7206 27.057C23.8382 27.057 23.9877 27.053 24.1821 27.049L24.2878 27.045L24.3814 27.29L24.2878 27.369C23.6638 27.902 23.612 27.945 23.6359 28.3C23.6448 28.43 23.6568 28.625 23.607 28.973C23.5541 29.345 23.7356 29.515 24.1343 29.886C24.1871 29.935 24.2439 29.987 24.3057 30.045L24.2 30.281L24.1014 30.273C23.8013 30.25 23.604 30.234 23.4654 30.234C23.1754 30.234 23.0946 30.312 22.9521 30.474Z" fill="#3CCFED"/>
<path d="M21.6593 26.386C21.3493 26.248 21.0234 26.178 20.6885 26.178C19.7515 26.178 18.8993 26.734 18.5165 27.592C18.1826 28.343 18.2434 29.165 18.683 29.847C19.1246 30.532 19.8911 30.956 20.6815 30.956C20.9695 30.956 21.2576 30.902 21.5367 30.795C22.4497 30.444 23.0348 29.614 23.0607 28.628C23.0896 27.646 22.5524 26.787 21.6593 26.386ZM21.6792 28.592C21.6673 29.004 21.4241 29.35 21.0433 29.495C20.5449 29.687 19.9509 29.418 19.7615 28.921C19.6439 28.61 19.6827 28.276 19.8681 28.008C20.0575 27.732 20.3635 27.567 20.6875 27.567C20.826 27.567 20.9616 27.598 21.0941 27.657C21.4659 27.823 21.6912 28.182 21.6792 28.592Z" fill="#3CCFED"/>
<path d="M33.7659 27.91C33.4988 27.91 33.3383 28.03 33.2496 28.131C33.1379 28.257 33.0781 28.426 33.0781 28.606C33.0781 28.952 33.3134 29.302 33.7649 29.302H34.5822C35.0347 29.302 35.27 28.951 35.27 28.607C35.27 28.26 35.0347 27.911 34.5822 27.911H33.7659V27.91Z" fill="#1427A8"/>
<path d="M30.2234 27.91C29.9573 27.91 29.7958 28.03 29.7071 28.131C29.5965 28.257 29.5347 28.426 29.5347 28.606C29.5347 28.952 29.7699 29.302 30.2224 29.302H31.0398C31.4913 29.302 31.7285 28.951 31.7285 28.607C31.7285 28.26 31.4913 27.911 31.0398 27.911H30.2234V27.91Z" fill="#1427A8"/>
<path d="M26.6819 27.91C26.4158 27.91 26.2543 28.03 26.1646 28.131C26.055 28.257 25.9932 28.426 25.9932 28.606C25.9932 28.952 26.2294 29.302 26.6809 29.302H27.4983C27.9508 29.302 28.187 28.951 28.187 28.607C28.187 28.26 27.9508 27.911 27.4983 27.911H26.6819V27.91Z" fill="#1427A8"/>
<path d="M6.49173 27.91C6.2246 27.91 6.06313 28.03 5.97542 28.131C5.86278 28.257 5.80298 28.426 5.80298 28.606C5.80298 28.952 6.03921 29.302 6.49074 29.302H7.30807C7.76059 29.302 7.99583 28.951 7.99583 28.607C7.99583 28.26 7.76059 27.911 7.30807 27.911H6.49173V27.91Z" fill="#1427A8"/>
<path d="M10.0342 27.91C9.7671 27.91 9.60463 28.03 9.51692 28.131C9.40528 28.257 9.34448 28.426 9.34448 28.606C9.34448 28.952 9.58171 29.302 10.0332 29.302H10.8506C11.3031 29.302 11.5383 28.951 11.5383 28.607C11.5383 28.26 11.3031 27.911 10.8506 27.911H10.0342V27.91Z" fill="#1427A8"/>
<path d="M13.5767 27.91C13.3106 27.91 13.1481 28.03 13.0594 28.131C12.9488 28.257 12.887 28.426 12.887 28.606C12.887 28.952 13.1242 29.302 13.5757 29.302H14.3931C14.8456 29.302 15.0818 28.951 15.0818 28.607C15.0818 28.26 14.8456 27.911 14.3931 27.911H13.5767V27.91Z" fill="#1427A8"/>
<path d="M36.6345 35.225C34.1008 35.222 32.0405 35.218 30.362 35.214C28.8788 35.211 27.6957 35.208 26.7488 35.208C22.9013 35.208 22.8893 35.233 22.7558 35.531C22.7498 35.544 22.7428 35.557 22.7348 35.573C22.6332 35.748 22.6122 35.785 21.5866 35.785C21.3603 35.785 21.0922 35.783 20.7673 35.78C20.2789 35.777 19.6669 35.773 18.8954 35.773C18.711 35.773 18.6452 35.689 18.5475 35.559C18.4339 35.412 18.2933 35.226 17.9564 35.226H4.65581L36.6345 35.225ZM3.27033 35.227H2.47792V11.675C2.47792 11.26 2.81382 10.923 3.22747 10.923H14.3931C14.8456 10.923 15.0818 10.572 15.0818 10.227C15.0818 9.88197 14.8456 9.53097 14.3931 9.53097H3.22747C2.04832 9.53097 1.08945 10.493 1.08945 11.676V35.228H0.693737C0.310986 35.227 0 35.539 0 35.922C0 37.902 1.3496 38.806 2.60151 38.806H38.6898C39.9417 38.806 41.2903 37.903 41.2903 35.922C41.2903 35.539 40.9783 35.227 40.5966 35.227H40.2009V11.675C40.2009 10.492 39.242 9.52997 38.0638 9.52997H27.584C27.1315 9.52997 26.8953 9.88097 26.8953 10.226C26.8953 10.571 27.1315 10.922 27.584 10.922H38.0638C38.4775 10.922 38.8144 11.259 38.8144 11.674V35.225H38.021L3.27033 35.227ZM38.6888 37.413H2.60151C2.08919 37.413 1.63766 37.088 1.46323 36.618H17.6185C17.9534 36.967 18.4159 37.165 18.8954 37.165C19.5512 37.165 20.1024 37.171 20.5699 37.175C22.6461 37.198 23.1176 37.212 23.6738 36.618H39.8271C39.6527 37.088 39.2011 37.413 38.6888 37.413Z" fill="#1427A8"/>
<path d="M36.0733 38.607C35.8062 38.607 35.6437 38.727 35.555 38.828C35.4454 38.956 35.3826 39.123 35.3826 39.304C35.3826 39.649 35.6208 40 36.0723 40C36.5248 40 36.7601 39.648 36.7601 39.304C36.7601 38.96 36.5268 38.607 36.0733 38.607Z" fill="#1427A8"/>
<path d="M34.0568 38.607H6.26543C5.81291 38.607 5.57568 38.959 5.57568 39.303C5.57568 39.647 5.81391 40 6.26543 40H34.0568C34.4385 40 34.7495 39.687 34.7495 39.304C34.7495 38.921 34.4385 38.607 34.0568 38.607Z" fill="#1427A8"/>
<path d="M6.91336 17.841H7.73867C8.19119 17.841 8.42643 17.491 8.42643 17.145C8.42643 16.8 8.1902 16.45 7.73867 16.45H6.91336C6.64623 16.45 6.48376 16.57 6.39605 16.671C6.28541 16.798 6.22461 16.966 6.22461 17.145C6.22461 17.491 6.46084 17.841 6.91336 17.841Z" fill="#1427A8"/>
<path d="M9.92655 17.841H11.4924C11.7586 17.841 11.921 17.721 12.0098 17.62C12.1204 17.494 12.1822 17.326 12.1822 17.146C12.1822 16.8 11.945 16.45 11.4934 16.45H9.92655C9.47402 16.45 9.23779 16.8 9.23779 17.145C9.23879 17.491 9.47502 17.841 9.92655 17.841Z" fill="#1427A8"/>
<path d="M6.91336 21.43H7.73867C8.19119 21.43 8.42643 21.081 8.42643 20.735C8.42643 20.389 8.1902 20.04 7.73867 20.04H6.91336C6.64623 20.04 6.48476 20.16 6.39605 20.261C6.28541 20.387 6.22461 20.555 6.22461 20.734C6.22461 21.08 6.46084 21.43 6.91336 21.43Z" fill="#1427A8"/>
<path d="M9.92655 21.43H12.6606C13.1132 21.43 13.3484 21.081 13.3484 20.735C13.3484 20.389 13.1132 20.04 12.6606 20.04H9.92655C9.47402 20.04 9.23779 20.389 9.23779 20.734C9.23879 21.08 9.47502 21.43 9.92655 21.43Z" fill="#1427A8"/>
<path d="M16.1654 24.105C16.1654 23.76 15.9292 23.409 15.4767 23.409H6.75709C6.30457 23.409 6.06934 23.761 6.06934 24.105C6.06934 24.451 6.30556 24.801 6.75709 24.801H15.4767C15.9282 24.802 16.1654 24.451 16.1654 24.105Z" fill="#1427A8"/>
<path d="M35.7196 24.105C35.7196 23.76 35.4834 23.409 35.0309 23.409H26.3123C25.8608 23.409 25.6235 23.761 25.6235 24.105C25.6235 24.451 25.8608 24.801 26.3123 24.801H35.0309C35.4834 24.802 35.7196 24.451 35.7196 24.105Z" fill="#1427A8"/>
<path d="M34.7227 17.841C35.1752 17.841 35.4114 17.491 35.4114 17.146C35.4114 16.8 35.1752 16.45 34.7227 16.45H30.2971C29.8456 16.45 29.6094 16.8 29.6094 17.145C29.6094 17.491 29.8456 17.841 30.2971 17.841H34.7227Z" fill="#1427A8"/>
<path d="M27.8662 20.734C27.8662 21.08 28.1034 21.43 28.555 21.43H34.7228C35.1754 21.43 35.4116 21.081 35.4116 20.735C35.4116 20.389 35.1754 20.04 34.7228 20.04H28.555C28.1034 20.04 27.8662 20.389 27.8662 20.734Z" fill="#1427A8"/>
<path d="M21.3255 6.32699C21.0623 6.06499 20.6068 6.06399 20.3457 6.32699C19.2472 7.42799 18.406 8.26799 17.7601 8.91099C15.5922 11.077 15.5922 11.077 15.6001 11.341L15.6011 11.405C15.5962 11.625 15.6271 11.694 16.4484 12.524L12.9139 16.897C12.7066 17.155 12.7086 17.526 12.9209 17.779C13.8409 18.886 14.5466 19.742 15.0928 20.403C16.9856 22.695 16.9856 22.695 17.2836 22.715C17.3185 22.717 17.3494 22.719 17.3783 22.719C17.6106 22.719 17.7162 22.63 18.7259 21.78C18.9971 21.55 19.3379 21.262 19.7665 20.904C20.0596 20.658 20.0995 20.219 19.8543 19.924L17.6804 17.307L19.2662 15.344L20.3457 16.425C20.6078 16.687 21.0633 16.687 21.3255 16.425L22.1926 15.554L23.6718 17.315L21.5049 19.925C21.2597 20.219 21.3005 20.659 21.5936 20.904C22.0272 21.265 22.3691 21.554 22.6422 21.786C23.6439 22.632 23.7476 22.72 23.9828 22.72C24.0107 22.72 24.0416 22.718 24.1094 22.713C24.3755 22.696 24.3755 22.696 26.2504 20.424C26.7996 19.761 27.5103 18.899 28.4393 17.78C28.6506 17.526 28.6536 17.155 28.4452 16.898L25.0463 12.692L25.8657 11.868C26.1358 11.597 26.1358 11.156 25.8657 10.885L25.3683 10.385L29.7021 6.03799L31.4484 7.78999C31.586 7.92799 31.7515 7.99999 31.9279 7.99999C32.205 7.99999 32.4761 7.81199 32.5867 7.54399C32.6924 7.28699 32.6336 7.01099 32.4282 6.80599L30.1915 4.56299C29.9294 4.29799 29.4729 4.29899 29.2107 4.56299L24.3895 9.39999L23.0867 8.09399L29.4968 1.66299L35.6368 7.82299C35.7743 7.96099 35.9418 8.03399 36.1182 8.03399C36.3943 8.03399 36.6654 7.84599 36.7761 7.57699C36.8807 7.31999 36.8229 7.04499 36.6166 6.83799L29.9882 0.185992C29.737 -0.0650083 29.2576 -0.0650083 29.0074 0.185992L22.1069 7.10899L21.3255 6.32699ZM16.249 17.757L18.3432 20.279L17.4332 21.04L14.3482 17.328L17.4332 13.513L18.2784 14.356L16.243 16.874C16.0357 17.131 16.0377 17.502 16.249 17.757ZM20.8341 7.80299L24.3955 11.375L20.8341 14.948L17.2747 11.375L20.8341 7.80299ZM25.1081 17.757C25.3244 17.497 25.3234 17.121 25.1051 16.863L23.1764 14.565L24.0595 13.678L27.0089 17.327L23.924 21.039L23.014 20.278L25.1081 17.757Z" fill="#3CCFED"/>
<path d="M2.96928 5.396V7.411C2.96928 7.865 3.31914 8.102 3.66302 8.102C3.84244 8.102 4.00989 8.041 4.13548 7.93C4.23615 7.841 4.35676 7.678 4.35676 7.411V5.395C5.21496 5.153 5.89674 4.469 6.13895 3.607H9.65847C9.96945 4.726 10.9702 5.496 12.1334 5.496C13.2966 5.496 14.3003 4.726 14.6103 3.607H18.1288C18.4398 4.726 19.4406 5.496 20.6048 5.496C22.0251 5.496 23.1814 4.337 23.1814 2.913C23.1814 1.488 22.0251 0.328003 20.6048 0.328003C19.4416 0.328003 18.4398 1.099 18.1298 2.217H14.6093C14.2993 1.099 13.2976 0.328003 12.1334 0.328003C10.9702 0.328003 9.96945 1.099 9.65847 2.217H6.13795C5.82696 1.099 4.82623 0.328003 3.66202 0.328003C2.24166 0.328003 1.08643 1.488 1.08643 2.913C1.08643 4.08 1.85492 5.084 2.96928 5.396ZM3.66202 1.718C4.31689 1.718 4.85015 2.254 4.85015 2.913C4.85015 3.57 4.31689 4.105 3.66202 4.105C3.00716 4.105 2.4739 3.57 2.4739 2.913C2.4739 2.254 3.00716 1.718 3.66202 1.718ZM12.1334 1.718C12.7903 1.718 13.3235 2.254 13.3235 2.913C13.3235 3.57 12.7903 4.105 12.1334 4.105C11.4785 4.105 10.9453 3.57 10.9453 2.913C10.9443 2.254 11.4785 1.718 12.1334 1.718ZM20.6048 1.718C21.2606 1.718 21.7949 2.254 21.7949 2.913C21.7949 3.57 21.2606 4.105 20.6048 4.105C19.9499 4.105 19.4166 3.57 19.4166 2.913C19.4156 2.254 19.9499 1.718 20.6048 1.718Z" fill="#1427A8"/>
</g>
<defs>
<clipPath id="clip0">
<rect width="41.2903" height="40" fill="white"/>
</clipPath>
</defs>
</svg>
