<svg width="54" height="40" viewBox="0 0 54 40" fill="none" xmlns="http://www.w3.org/2000/svg">
<g clip-path="url(#clip0)">
<rect width="53.0612" height="40" fill="white"/>
<path d="M17.3666 12.868C17.2156 12.643 16.9793 12.491 16.7131 12.448C16.4479 12.405 16.1748 12.476 15.9622 12.643C12.1703 15.618 9.90588 20.326 9.90588 25.237C9.90588 25.778 10.3409 26.216 10.8782 26.216H18.914C19.4513 26.216 19.8863 25.778 19.8863 25.237C19.8863 23.563 20.5517 22.031 21.7614 20.924C22.1179 20.597 22.1835 20.056 21.9133 19.652L17.3666 12.868ZM18.0002 24.258H11.8853C12.1356 20.662 13.7554 17.264 16.3595 14.866L19.8565 20.084C18.8276 21.256 18.1879 22.693 18.0002 24.258Z" fill="#4CD9ED"/>
<path d="M24.1351 19.334C25.7291 18.54 27.5804 18.539 29.1784 19.334C29.6134 19.55 30.1408 19.412 30.4139 19.008L34.9607 12.287C35.1096 12.064 35.1643 11.787 35.1057 11.524C35.0451 11.26 34.8822 11.032 34.6518 10.894C29.822 8.00701 23.4905 8.00701 18.6587 10.894C18.4283 11.032 18.2645 11.26 18.2059 11.524C18.1473 11.788 18.2009 12.064 18.3509 12.287L22.8996 19.008C23.0863 19.283 23.3902 19.436 23.7031 19.436C23.8501 19.436 23.997 19.402 24.1351 19.334ZM20.5656 12.079C24.3367 10.198 28.9768 10.198 32.7479 12.079L29.2559 17.241C28.4196 16.934 27.5486 16.779 26.6568 16.779C25.7649 16.779 24.8939 16.934 24.0576 17.241L20.5656 12.079Z" fill="#4CD9ED"/>
<path d="M37.3622 12.808C37.1507 12.641 36.8755 12.57 36.6114 12.613C36.3452 12.656 36.1088 12.809 35.9579 13.034L31.8402 19.205C31.5392 19.653 31.6574 20.262 32.1043 20.562C32.3 20.695 32.5255 20.733 32.744 20.711L28.4952 22.054C27.4772 21.585 26.2764 21.589 25.2594 22.081C23.3605 22.998 22.555 25.3 23.4667 27.212C24.0974 28.538 25.4511 29.396 26.912 29.396C27.4861 29.396 28.0413 29.268 28.5627 29.017C29.5827 28.524 30.3206 27.612 30.6017 26.521L35.8744 23.333C36.3075 23.07 36.4703 22.514 36.2429 22.056L35.5596 20.685C35.3461 20.255 34.8554 20.043 34.3996 20.189L33.1422 20.586C33.2624 20.514 33.3716 20.422 33.4541 20.297L36.9669 15.034C39.4538 17.347 40.9515 20.623 41.18 24.258H34.6896C34.1523 24.258 33.7173 24.697 33.7173 25.237C33.7173 25.778 34.1523 26.216 34.6896 26.216H42.1831C42.7204 26.216 43.1564 25.778 43.1564 25.237C43.1564 20.227 41.0439 15.696 37.3622 12.808ZM29.2291 25.066C28.9749 25.22 28.802 25.484 28.7653 25.782C28.6839 26.426 28.2935 26.974 27.7195 27.252C27.4633 27.375 27.1921 27.439 26.911 27.439C26.193 27.439 25.5295 27.017 25.2197 26.366C24.7718 25.428 25.167 24.298 26.0986 23.848C26.3529 23.725 26.622 23.662 26.9001 23.662C27.2497 23.662 27.5904 23.76 27.8913 23.945C28.1297 24.093 28.4207 24.131 28.6908 24.045L33.3577 22.57L29.2291 25.066Z" fill="#4CD9ED"/>
<path d="M52.0889 32.572H49.7281V3.342C49.7281 1.568 48.295 0.125 46.5331 0.125H6.52812C4.76623 0.125 3.33309 1.568 3.33309 3.342V32.572H0.972316C0.435009 32.572 0 33.011 0 33.552V35.789C0 38.18 1.93172 40.125 4.3054 40.125H48.7548C51.1295 40.125 53.0612 38.18 53.0612 35.789V33.552C53.0612 33.011 52.6262 32.572 52.0889 32.572ZM5.27772 3.342C5.27772 2.648 5.83886 2.083 6.52812 2.083H46.5331C47.2214 2.083 47.7825 2.648 47.7825 3.342V32.572H32.0864C31.8302 32.572 31.5819 32.675 31.4001 32.858L30.5738 33.691H22.4884L21.6621 32.858C21.4793 32.674 21.233 32.572 20.9758 32.572H5.27772V3.342ZM51.1176 35.789C51.1176 37.101 50.0589 38.167 48.7548 38.167H4.3054C3.00335 38.167 1.94463 37.101 1.94463 35.789V34.53H20.5716L21.3979 35.363C21.5806 35.547 21.8289 35.649 22.0862 35.649H30.9741C31.2343 35.649 31.4806 35.546 31.6623 35.363L32.4887 34.53H51.1166V35.789H51.1176Z" fill="#1427A8"/>
</g>
<defs>
<clipPath id="clip0">
<rect width="53.0612" height="40" fill="white"/>
</clipPath>
</defs>
</svg>
